<?xml version="1.0" encoding="UTF-8" standalone="no"?><svg xmlns="http://www.w3.org/2000/svg" xmlns:xlink="http://www.w3.org/1999/xlink" contentScriptType="application/ecmascript" contentStyleType="text/css" height="637px" preserveAspectRatio="none" style="width:522px;height:637px;" version="1.1" viewBox="0 0 522 637" width="522px" zoomAndPan="magnify"><defs><filter height="300%" id="f1u8296x7o0lul" width="300%" x="-1" y="-1"><feGaussianBlur result="blurOut" stdDeviation="2.0"/><feColorMatrix in="blurOut" result="blurOut2" type="matrix" values="0 0 0 0 0 0 0 0 0 0 0 0 0 0 0 0 0 0 .4 0"/><feOffset dx="4.0" dy="4.0" in="blurOut2" result="blurOut3"/><feBlend in="SourceGraphic" in2="blurOut3" mode="normal"/></filter></defs><g><!--MD5=[69c451c751c414e37549b782190fef46]
class B--><rect fill="#FEFECE" filter="url(#f1u8296x7o0lul)" height="87.9063" id="B" style="stroke: #A80036; stroke-width: 1.5;" width="221" x="286" y="185"/><ellipse cx="377" cy="200" fill="#ADD1B2" rx="10" ry="10" style="stroke: #A80036; stroke-width: 1.0;"/><path d="M379.4375,204.5 L373.9844,204.5 L373.9844,195.75 L379.4375,195.75 L379.4375,197.2813 L375.7188,197.2813 L375.7188,199.1563 L379.0781,199.1563 L379.0781,200.6875 L375.7188,200.6875 L375.7188,202.9688 L379.4375,202.9688 L379.4375,204.5 Z "/><text fill="#000000" font-family="Helvetica" font-size="12" lengthAdjust="spacingAndGlyphs" textLength="31" x="396" y="204.1543">Book</text><line style="stroke: #A80036; stroke-width: 1.5;" x1="287" x2="506" y1="215" y2="215"/><ellipse cx="297" cy="226" fill="#000000" rx="3" ry="3" style="stroke: #000000; stroke-width: 1.0;"/><text fill="#000000" font-family="Helvetica" font-size="12" lengthAdjust="spacingAndGlyphs" textLength="196" x="305" y="230.1387">ISBN              : CHAR(13)    «PK»</text><line style="stroke: #A80036; stroke-width: 1.0;" x1="287" x2="506" y1="236.9688" y2="236.9688"/><text fill="#000000" font-family="Helvetica" font-size="12" lengthAdjust="spacingAndGlyphs" textLength="185" x="292" y="252.1074">Title               : VARCHAR(200)</text><text fill="#000000" font-family="Helvetica" font-size="12" lengthAdjust="spacingAndGlyphs" textLength="177" x="292" y="266.0762">PublicationYear     : INTEGER</text><!--MD5=[a46ee5ce0ceb0380cf446a08a056dce4]
class A--><rect fill="#FEFECE" filter="url(#f1u8296x7o0lul)" height="101.875" id="A" style="stroke: #A80036; stroke-width: 1.5;" width="228" x="282.5" y="8"/><ellipse cx="371.5" cy="23" fill="#ADD1B2" rx="10" ry="10" style="stroke: #A80036; stroke-width: 1.0;"/><path d="M373.9375,27.5 L368.4844,27.5 L368.4844,18.75 L373.9375,18.75 L373.9375,20.2813 L370.2188,20.2813 L370.2188,22.1563 L373.5781,22.1563 L373.5781,23.6875 L370.2188,23.6875 L370.2188,25.9688 L373.9375,25.9688 L373.9375,27.5 Z "/><text fill="#000000" font-family="Helvetica" font-size="12" lengthAdjust="spacingAndGlyphs" textLength="42" x="390.5" y="27.1543">Author</text><line style="stroke: #A80036; stroke-width: 1.5;" x1="283.5" x2="509.5" y1="38" y2="38"/><ellipse cx="293.5" cy="49" fill="#000000" rx="3" ry="3" style="stroke: #000000; stroke-width: 1.0;"/><text fill="#000000" font-family="Helvetica" font-size="12" lengthAdjust="spacingAndGlyphs" textLength="203" x="301.5" y="53.1387">AuthorID          : INTEGER     «PK»</text><line style="stroke: #A80036; stroke-width: 1.0;" x1="283.5" x2="509.5" y1="59.9688" y2="59.9688"/><text fill="#000000" font-family="Helvetica" font-size="12" lengthAdjust="spacingAndGlyphs" textLength="209" x="288.5" y="75.1074">LastName            : VARCHAR(100)</text><text fill="#000000" font-family="Helvetica" font-size="12" lengthAdjust="spacingAndGlyphs" textLength="206" x="288.5" y="89.0762">FirstName           : VARCHAR(100)</text><text fill="#000000" font-family="Helvetica" font-size="12" lengthAdjust="spacingAndGlyphs" textLength="193" x="288.5" y="103.0449">Nationality         : VARCHAR(50)</text><!--MD5=[378b18254a1b2429f435e93f5e5cc50c]
class C--><rect fill="#FEFECE" filter="url(#f1u8296x7o0lul)" height="87.9063" id="C" style="stroke: #A80036; stroke-width: 1.5;" width="229" x="282" y="362"/><ellipse cx="377.5" cy="377" fill="#ADD1B2" rx="10" ry="10" style="stroke: #A80036; stroke-width: 1.0;"/><path d="M379.9375,381.5 L374.4844,381.5 L374.4844,372.75 L379.9375,372.75 L379.9375,374.2813 L376.2188,374.2813 L376.2188,376.1563 L379.5781,376.1563 L379.5781,377.6875 L376.2188,377.6875 L376.2188,379.9688 L379.9375,379.9688 L379.9375,381.5 Z "/><text fill="#000000" font-family="Helvetica" font-size="12" lengthAdjust="spacingAndGlyphs" textLength="30" x="396.5" y="381.1543">Copy</text><line style="stroke: #A80036; stroke-width: 1.5;" x1="283" x2="510" y1="392" y2="392"/><ellipse cx="293" cy="403" fill="#000000" rx="3" ry="3" style="stroke: #000000; stroke-width: 1.0;"/><text fill="#000000" font-family="Helvetica" font-size="12" lengthAdjust="spacingAndGlyphs" textLength="204" x="301" y="407.1387">CopyNo            : INTEGER     «PK»</text><line style="stroke: #A80036; stroke-width: 1.0;" x1="283" x2="510" y1="413.9688" y2="413.9688"/><text fill="#000000" font-family="Helvetica" font-size="12" lengthAdjust="spacingAndGlyphs" textLength="203" x="288" y="429.1074">ShelfLocation       : VARCHAR(30)</text><text fill="#000000" font-family="Helvetica" font-size="12" lengthAdjust="spacingAndGlyphs" textLength="194" x="288" y="443.0762">Condition           : VARCHAR(20)</text><!--MD5=[ca86e0a6a0e0c1496e70ac1078033fbc]
class M--><rect fill="#FEFECE" filter="url(#f1u8296x7o0lul)" height="115.8438" id="M" style="stroke: #A80036; stroke-width: 1.5;" width="241" x="6" y="348"/><ellipse cx="97.5" cy="363" fill="#ADD1B2" rx="10" ry="10" style="stroke: #A80036; stroke-width: 1.0;"/><path d="M99.9375,367.5 L94.4844,367.5 L94.4844,358.75 L99.9375,358.75 L99.9375,360.2813 L96.2188,360.2813 L96.2188,362.1563 L99.5781,362.1563 L99.5781,363.6875 L96.2188,363.6875 L96.2188,365.9688 L99.9375,365.9688 L99.9375,367.5 Z "/><text fill="#000000" font-family="Helvetica" font-size="12" lengthAdjust="spacingAndGlyphs" textLength="50" x="116.5" y="367.1543">Member</text><line style="stroke: #A80036; stroke-width: 1.5;" x1="7" x2="246" y1="378" y2="378"/><ellipse cx="17" cy="389" fill="#000000" rx="3" ry="3" style="stroke: #000000; stroke-width: 1.0;"/><text fill="#000000" font-family="Helvetica" font-size="12" lengthAdjust="spacingAndGlyphs" textLength="216" x="25" y="393.1387">MemberNo          : INTEGER     «PK»</text><line style="stroke: #A80036; stroke-width: 1.0;" x1="7" x2="246" y1="399.9688" y2="399.9688"/><text fill="#000000" font-family="Helvetica" font-size="12" lengthAdjust="spacingAndGlyphs" textLength="209" x="12" y="415.1074">LastName            : VARCHAR(100)</text><text fill="#000000" font-family="Helvetica" font-size="12" lengthAdjust="spacingAndGlyphs" textLength="206" x="12" y="429.0762">FirstName           : VARCHAR(100)</text><text fill="#000000" font-family="Helvetica" font-size="12" lengthAdjust="spacingAndGlyphs" textLength="192" x="12" y="443.0449">Email               : VARCHAR(150)</text><text fill="#000000" font-family="Helvetica" font-size="12" lengthAdjust="spacingAndGlyphs" textLength="162" x="12" y="457.0137">EnrolmentDate       : DATE</text><!--MD5=[8832394f0f955ca405dbc7ff727aede1]
class L--><rect fill="#FEFECE" filter="url(#f1u8296x7o0lul)" height="87.9063" id="L" style="stroke: #A80036; stroke-width: 1.5;" width="224" x="55.5" y="539"/><ellipse cx="148.5" cy="554" fill="#ADD1B2" rx="10" ry="10" style="stroke: #A80036; stroke-width: 1.0;"/><path d="M150.9375,558.5 L145.4844,558.5 L145.4844,549.75 L150.9375,549.75 L150.9375,551.2813 L147.2188,551.2813 L147.2188,553.1563 L150.5781,553.1563 L150.5781,554.6875 L147.2188,554.6875 L147.2188,556.9688 L150.9375,556.9688 L150.9375,558.5 Z "/><text fill="#000000" font-family="Helvetica" font-size="12" lengthAdjust="spacingAndGlyphs" textLength="30" x="167.5" y="558.1543">Loan</text><line style="stroke: #A80036; stroke-width: 1.5;" x1="56.5" x2="278.5" y1="569" y2="569"/><ellipse cx="66.5" cy="580" fill="#000000" rx="3" ry="3" style="stroke: #000000; stroke-width: 1.0;"/><text fill="#000000" font-family="Helvetica" font-size="12" lengthAdjust="spacingAndGlyphs" textLength="199" x="74.5" y="584.1387">LoanID            : INTEGER     «PK»</text><line style="stroke: #A80036; stroke-width: 1.0;" x1="56.5" x2="278.5" y1="590.9688" y2="590.9688"/><text fill="#000000" font-family="Helvetica" font-size="12" lengthAdjust="spacingAndGlyphs" textLength="148" x="61.5" y="606.1074">LoanDate            : DATE</text><text fill="#000000" font-family="Helvetica" font-size="12" lengthAdjust="spacingAndGlyphs" textLength="152" x="61.5" y="620.0762">ReturnDate          : DATE</text><!--MD5=[5e2eec62a50b26b6b0db6c12e4ee289c]
link A to B--><path d="M396.5,118.01 C396.5,118.01 396.5,176.94 396.5,176.94 " fill="none" id="A-B" style="stroke: #A80036; stroke-width: 1.0;"/><line style="stroke: #A80036; stroke-width: 1.0;" x1="396.5" x2="402.5" y1="176.94" y2="184.94"/><line style="stroke: #A80036; stroke-width: 1.0;" x1="396.5" x2="390.5" y1="176.94" y2="184.94"/><line style="stroke: #A80036; stroke-width: 1.0;" x1="396.5" x2="396.5" y1="176.94" y2="184.94"/><line style="stroke: #A80036; stroke-width: 1.0;" x1="400.5" x2="392.5" y1="174.94" y2="174.94"/><line style="stroke: #A80036; stroke-width: 1.0;" x1="396.5" x2="390.5" y1="118.01" y2="110.01"/><line style="stroke: #A80036; stroke-width: 1.0;" x1="396.5" x2="402.5" y1="118.01" y2="110.01"/><line style="stroke: #A80036; stroke-width: 1.0;" x1="396.5" x2="396.5" y1="118.01" y2="110.01"/><line style="stroke: #A80036; stroke-width: 1.0;" x1="392.5" x2="400.5" y1="120.01" y2="120.01"/><text fill="#000000" font-family="Helvetica" font-size="12" lengthAdjust="spacingAndGlyphs" textLength="37" x="397.5" y="152.1387">writes</text><!--MD5=[cd25d8247324207f828a4db9f58ed69d]
link B to C--><path d="M396.5,281.21 C396.5,281.21 396.5,353.74 396.5,353.74 " fill="none" id="B-C" style="stroke: #A80036; stroke-width: 1.0;"/><line style="stroke: #A80036; stroke-width: 1.0;" x1="396.5" x2="402.5" y1="353.74" y2="361.74"/><line style="stroke: #A80036; stroke-width: 1.0;" x1="396.5" x2="390.5" y1="353.74" y2="361.74"/><line style="stroke: #A80036; stroke-width: 1.0;" x1="396.5" x2="396.5" y1="353.74" y2="361.74"/><line style="stroke: #A80036; stroke-width: 1.0;" x1="400.5" x2="392.5" y1="351.74" y2="351.74"/><line style="stroke: #A80036; stroke-width: 1.0;" x1="392.5" x2="400.5" y1="277.21" y2="277.21"/><line style="stroke: #A80036; stroke-width: 1.0;" x1="392.5" x2="400.5" y1="280.21" y2="280.21"/><line style="stroke: #A80036; stroke-width: 1.0;" x1="396.5" x2="396.5" y1="281.21" y2="273.21"/><text fill="#000000" font-family="Helvetica" font-size="12" lengthAdjust="spacingAndGlyphs" textLength="88" x="397.5" y="315.1387">is available as</text><!--MD5=[0cde0f22736ab759d192f799ae65f05d]
link M to L--><path d="M151.25,472.45 C151.25,472.45 151.25,530.92 151.25,530.92 " fill="none" id="M-L" style="stroke: #A80036; stroke-width: 1.0;"/><line style="stroke: #A80036; stroke-width: 1.0;" x1="151.25" x2="157.25" y1="530.92" y2="538.92"/><line style="stroke: #A80036; stroke-width: 1.0;" x1="151.25" x2="145.25" y1="530.92" y2="538.92"/><line style="stroke: #A80036; stroke-width: 1.0;" x1="151.25" x2="151.25" y1="530.92" y2="538.92"/><ellipse cx="151.25" cy="524.92" fill="none" rx="4" ry="4" style="stroke: #A80036; stroke-width: 1.0;"/><line style="stroke: #A80036; stroke-width: 1.0;" x1="147.25" x2="155.25" y1="468.45" y2="468.45"/><line style="stroke: #A80036; stroke-width: 1.0;" x1="147.25" x2="155.25" y1="471.45" y2="471.45"/><line style="stroke: #A80036; stroke-width: 1.0;" x1="151.25" x2="151.25" y1="472.45" y2="464.45"/><text fill="#000000" font-family="Helvetica" font-size="12" lengthAdjust="spacingAndGlyphs" textLength="41" x="127.5" y="506.1387">places</text><!--MD5=[42e092837d90c53e9069d09c19a87a72]
link C to L--><path d="M273.78,406 C273.78,406 263.25,406 263.25,406 C263.25,406 263.25,530.79 263.25,530.79 " fill="none" id="C-L" style="stroke: #A80036; stroke-width: 1.0;"/><line style="stroke: #A80036; stroke-width: 1.0;" x1="263.25" x2="269.25" y1="530.79" y2="538.79"/><line style="stroke: #A80036; stroke-width: 1.0;" x1="263.25" x2="257.25" y1="530.79" y2="538.79"/><line style="stroke: #A80036; stroke-width: 1.0;" x1="263.25" x2="263.25" y1="530.79" y2="538.79"/><ellipse cx="263.25" cy="524.79" fill="none" rx="4" ry="4" style="stroke: #A80036; stroke-width: 1.0;"/><line style="stroke: #A80036; stroke-width: 1.0;" x1="277.78" x2="277.78" y1="402" y2="410"/><line style="stroke: #A80036; stroke-width: 1.0;" x1="274.78" x2="274.78" y1="402" y2="410"/><line style="stroke: #A80036; stroke-width: 1.0;" x1="273.78" x2="281.78" y1="406" y2="406"/><text fill="#000000" font-family="Helvetica" font-size="12" lengthAdjust="spacingAndGlyphs" textLength="88" x="303.5" y="506.1387">is borrowed in</text><!--MD5=[2f5d7615f6beb86abde9622a8d57387a]
@startuml Library


skinparam linetype ortho
skinparam defaultFontName Helvetica
skinparam defaultFontSize 12
skinparam entityBackgroundColor #CCE5FF
skinparam entityBorderColor     #003C7C
skinparam entityFontColor       #003C7C
skinparam entityFontStyle       bold


entity "Book" as B {
  * ISBN              : CHAR(13)    <<PK>>
  - -
  Title               : VARCHAR(200)
  PublicationYear     : INTEGER
}

entity "Author" as A {
  * AuthorID          : INTEGER     <<PK>>
  - -
  LastName            : VARCHAR(100)
  FirstName           : VARCHAR(100)
  Nationality         : VARCHAR(50)
}

entity "Copy" as C {
  * CopyNo            : INTEGER     <<PK>>
  - -
  ShelfLocation       : VARCHAR(30)
  Condition           : VARCHAR(20)
}

entity "Member" as M {
  * MemberNo          : INTEGER     <<PK>>
  - -
  LastName            : VARCHAR(100)
  FirstName           : VARCHAR(100)
  Email               : VARCHAR(150)
  EnrolmentDate       : DATE
}

entity "Loan" as L {
  * LoanID            : INTEGER     <<PK>>
  - -
  LoanDate            : DATE
  ReturnDate          : DATE
}

A }|- -|{ B : "writes"
B ||- -|{ C : "is available as"
M ||- -o{ L : "places"
C ||- -o{ L : "is borrowed in"


@enduml

PlantUML version 1.2020.02(Sun Mar 01 11:22:07 CET 2020)
(GPL source distribution)
Java Runtime: OpenJDK Runtime Environment
JVM: OpenJDK 64-Bit Server VM
Java Version: 11.0.30+7-post-Ubuntu-1ubuntu122.04
Operating System: Linux
Default Encoding: UTF-8
Language: en
Country: null
--></g></svg>